Coordinates
version=1
nRows=13
nColumns=40
inDegrees=yes

Units are S.I. units (second, meters, Newtons, ...)
Angles are in degrees.

endheader
time	pelvis_tilt	pelvis_list	pelvis_rotation	pelvis_tx	pelvis_ty	pelvis_tz	hip_flexion_r	hip_adduction_r	hip_rotation_r	knee_angle_r	knee_angle_r_beta	ankle_angle_r	subtalar_angle_r	mtp_angle_r	hip_flexion_l	hip_adduction_l	hip_rotation_l	knee_angle_l	knee_angle_l_beta	ankle_angle_l	subtalar_angle_l	mtp_angle_l	lumbar_extension	lumbar_bending	lumbar_rotation	arm_flex_r	arm_add_r	arm_rot_r	elbow_flex_r	pro_sup_r	wrist_flex_r	wrist_dev_r	arm_flex_l	arm_add_l	arm_rot_l	elbow_flex_l	pro_sup_l	wrist_flex_l	wrist_dev_l
     11.57500000	     -4.80163498	     -4.04488161	     -8.50924793	      0.99905320	      0.93143929	      0.46343623	     23.92567045	      0.48820446	    -10.60285108	     12.96518473	     12.96518473	      2.67965471	      8.37477057	      6.45029960	      4.24333090	     -4.61543747	    -14.77008615	     13.35224714	     13.35224714	     13.71678181	     -9.48487027	     -5.55274366	    -10.23286585	      4.64059269	      0.31252947	    -11.62712803	    -10.81675048	     -0.73045840	     31.04859251	     45.61761680	      0.00000000	      0.00000000	     24.05691718	    -20.23346939	     -7.14278635	     60.40722002	     46.66629356	      0.00000000	      0.00000000
     11.58850000	     -4.71734406	     -4.00617985	     -8.55888282	      0.99963702	      0.93094461	      0.46531822	     23.39417672	      0.73256598	    -11.07053895	     12.57314115	     12.57314115	      2.59781192	      8.95352597	      6.34102256	      3.48697007	     -4.58239407	    -14.96450869	     12.93681850	     12.93681850	     13.96498822	     -9.12070528	     -5.64129765	    -10.16828151	      4.64306763	      0.18110225	    -11.20992818	    -10.90453899	     -0.70067655	     31.32622762	     45.61181977	      0.00000000	      0.00000000	     24.05960035	    -20.27643178	     -7.13518310	     59.92299165	     46.66808128	      0.00000000	      0.00000000
     11.60200000	     -4.82849752	     -3.89224581	     -8.57159232	      1.00023291	      0.93004887	      0.46725886	     23.17554662	      0.90076635	    -11.22372194	     12.63640334	     12.63640334	      2.62372838	      8.88716836	      6.31102894	      3.17639211	     -4.54211337	    -14.96388913	     12.94185226	     12.94185226	     14.19962150	     -9.15836814	     -5.71910067	     -9.82994127	      4.57977898	      0.25818145	    -11.01164717	    -10.92669068	     -0.70566518	     31.40716057	     45.61062488	      0.00000000	      0.00000000	     24.04310024	    -20.23670496	     -7.12290170	     59.89561025	     46.66700423	      0.00000000	      0.00000000
     11.61550000	     -4.59551088	     -3.84857484	     -8.57180529	      1.00133563	      0.92963854	      0.46931745	     22.67287165	      1.01876137	    -11.34639079	     13.16853393	     13.16853393	      2.73111397	      8.83549699	      5.34807726	      2.15818065	     -4.48783998	    -15.23908788	     12.40234643	     12.40234643	     14.59235752	     -8.42243304	     -5.64171734	     -9.86422591	      4.59128339	     -0.08875703	    -10.18475004	    -11.10340163	     -0.75597266	     31.97053664	     45.60195911	      0.00000000	      0.00000000	     23.83564576	    -20.23960323	     -7.12738561	     58.76235374	     46.65975646	      0.00000000	      0.00000000
     11.62900000	     -4.50083365	     -3.80967671	     -8.52022733	      1.00239761	      0.92894288	      0.47144493	     22.32920080	      1.14598926	    -11.25297099	     13.82058338	     13.82058338	      2.84434771	      8.35888221	      4.31723593	      1.55060492	     -4.52514647	    -15.35512241	     12.34866696	     12.34866696	     15.05998930	     -8.03458268	     -5.49259001	     -9.71996710	      4.63150675	     -0.16964230	     -9.62222048	    -11.26829198	     -0.81317699	     32.38933207	     45.59688217	      0.00000000	      0.00000000	     23.69072785	    -20.08679658	     -7.13507580	     57.94563477	     46.65587798	      0.00000000	      0.00000000
     11.64250000	     -4.39580704	     -3.76711947	     -8.41553920	      1.00363180	      0.92825012	      0.47380106	     21.79546011	      1.35810710	    -10.68703612	     14.07954177	     14.07954177	      1.83467102	      7.04825307	      0.24996866	      1.15435619	     -4.71214112	    -15.86156303	     12.84584240	     12.84584240	     16.40385233	     -6.73831728	     -3.88634915	     -9.52814983	      4.65549608	      0.04235841	     -9.38046143	    -11.43054257	     -1.05201679	     33.42868506	     45.59189419	      0.00000000	      0.00000000	     24.15166987	    -19.44205109	     -7.32246415	     55.73234865	     46.68328742	      0.00000000	      0.00000000
     11.65600000	     -4.22519264	     -3.75882810	     -8.30497961	      1.00492406	      0.92774121	      0.47606484	     21.45387858	      1.43053620	    -10.49805314	     14.96852484	     14.96852484	      2.32181042	      6.55400169	     -0.26668871	      0.54127384	     -4.79661668	    -15.78666317	     12.94084900	     12.94084900	     16.74343990	     -6.63875779	     -3.79042471	     -9.47011941	      4.73070507	     -0.01107600	     -8.64987876	    -11.65029754	     -1.19391889	     33.79669779	     45.59382710	      0.00000000	      0.00000000	     23.65933119	    -19.27772290	     -7.21450944	     55.32192582	     46.66818305	      0.00000000	      0.00000000
     11.66950000	     -4.14606164	     -3.73866217	     -8.14022948	      1.00622612	      0.92731709	      0.47840889	     21.03015416	      1.50769295	    -10.33984301	     15.45661333	     15.45661333	      2.82738965	      6.23582861	     -0.59062466	      0.10089161	     -4.91462352	    -15.65749772	     13.14265434	     13.14265434	     17.01319171	     -6.63930046	     -3.78987792	     -9.31646261	      4.75323770	      0.08070679	     -7.90843722	    -11.81104739	     -1.27466626	     34.10979997	     45.59260916	      0.00000000	      0.00000000	     23.08666017	    -18.81565036	     -7.06802932	     54.98051943	     46.64732766	      0.00000000	      0.00000000
     11.68300000	     -3.91215545	     -3.68555971	     -7.97026266	      1.00734440	      0.92698265	      0.48095413	     20.97373769	      1.53729410	     -9.56317344	     16.83209729	     16.83209729	      3.34141472	      4.72000119	     -1.38707859	     -0.22040741	     -5.10088999	    -15.63840225	     13.91032758	     13.91032758	     17.57339282	     -6.47502570	     -3.31286665	     -9.30817201	      4.71468998	     -0.52406433	     -6.84467871	    -12.01973547	     -1.60118277	     34.87208517	     45.59280390	      0.00000000	      0.00000000	     22.46957143	    -19.04893407	     -7.14184836	     53.70176423	     46.63768729	      0.00000000	      0.00000000
     11.69650000	     -3.88437070	     -3.69584216	     -7.76117286	      1.00844980	      0.92671941	      0.48351663	     20.74830852	      1.75136679	     -8.80876796	     17.39665970	     17.39665970	      3.64097569	      3.05523221	     -2.24042981	     -0.05593225	     -5.50407015	    -15.70178904	     15.22001431	     15.22001431	     18.47959956	     -6.11259239	     -2.13943064	     -9.04417300	      4.88063079	     -0.75028190	     -5.89882959	    -12.18937187	     -2.07309135	     35.73699218	     45.59901255	      0.00000000	      0.00000000	     21.91851324	    -18.72564980	     -7.34016581	     52.00832793	     46.63993195	      0.00000000	      0.00000000
     11.71000000	     -3.64000269	     -3.76255087	     -7.54125051	      1.00962004	      0.92704724	      0.48618260	     20.19144172	      1.94878534	     -8.34674165	     17.76750159	     17.76750159	      3.89485231	      2.02833808	     -3.25805958	     -0.04788193	     -5.98933128	    -15.77235345	     16.72151961	     16.72151961	     19.56183056	     -5.60422397	     -0.25868399	     -9.09406412	      5.01936144	     -0.53249163	     -5.19717113	    -12.39180052	     -2.83925447	     36.64997127	     45.62290004	      0.00000000	      0.00000000	     21.82840566	    -17.97425191	     -7.70448474	     50.05362734	     46.66699835	      0.00000000	      0.00000000
     11.72350000	     -3.45405087	     -3.80505804	     -7.26588946	      1.01063931	      0.92746903	      0.48880213	     19.71497842	      2.05999850	     -8.19799739	     18.14362404	     18.14362404	      4.41610296	      1.50192330	     -3.59513031	      0.18941951	     -6.43832474	    -15.38676540	     18.36328803	     18.36328803	     19.69213593	     -6.09381824	     -0.12155467	     -9.08983704	      5.11752433	     -0.60877639	     -4.12872355	    -12.62224181	     -3.21745010	     37.33487750	     45.62907298	      0.00000000	      0.00000000	     21.09674156	    -17.61578447	     -7.68721807	     48.95340728	     46.65275579	      0.00000000	      0.00000000
     11.73700000	     -3.15429587	     -3.87444340	     -6.96228459	      1.01165269	      0.92825106	      0.49147691	     19.01215218	      2.18827496	     -8.16741109	     18.32455941	     18.32455941	      4.97437851	      1.17138695	     -3.81556181	      0.45758348	     -6.94764417	    -14.91437368	     20.26307419	     20.26307419	     19.55402630	     -6.75302081	     -0.32270407	     -9.25225413	      5.20913559	     -0.58345734	     -2.99057347	    -12.88854272	     -3.43025713	     37.92302971	     45.62748513	      0.00000000	      0.00000000	     20.35107298	    -17.22144885	     -7.61781463	     48.08886361	     46.63211179	      0.00000000	      0.00000000
